<?xml version="1.0" encoding="UTF-8" standalone="no"?>
<svg width="108px" height="107px" viewBox="0 0 108 107" version="1.1" xmlns="http://www.w3.org/2000/svg" xmlns:xlink="http://www.w3.org/1999/xlink">
    <!-- Generator: Sketch 3.8.3 (29802) - http://www.bohemiancoding.com/sketch -->
    <title>Group</title>
    <desc>Created with Sketch.</desc>
    <defs>
        <linearGradient x1="123.093231%" y1="65.2709835%" x2="10.0617341%" y2="44.6598204%" id="linearGradient-1">
            <stop stop-color="#B27CE9" offset="0%"></stop>
            <stop stop-color="#2BD07C" offset="100%"></stop>
        </linearGradient>
    </defs>
    <g id="Page-1" stroke="none" stroke-width="1" fill="none" fill-rule="evenodd">
        <g id="Desktop-HD" transform="translate(-1107.000000, -824.000000)" fill="url(#linearGradient-1)">
            <g id="how-it-works" transform="translate(-147.000000, 504.000000)">
                <g id="Group-8-Copy-2" transform="translate(1117.646613, 319.582078)">
                    <g id="ok3" transform="translate(136.849506, 0.304368)">
                        <g id="Group">
                            <path d="M99.7060542,26.8809836 C94.9453836,18.7244532 88.4872086,12.2662782 80.3306782,7.50560764 C72.172446,2.74493711 63.2662908,0.365027285 53.6062563,0.365027285 C43.9470728,0.365027285 35.0383649,2.74493711 26.8818345,7.50560764 C18.7244532,12.2654273 12.2662782,18.7236023 7.50560764,26.8809836 C2.74408623,35.0383649 0.364176405,43.9470728 0.364176405,53.6054055 C0.364176405,63.264589 2.74493711,72.1715951 7.50475676,80.3298273 C12.2654273,88.4855068 18.7236023,94.9445327 26.8809836,99.7052033 C35.0383649,104.465874 43.9462219,106.845784 53.6054055,106.845784 C63.264589,106.845784 72.1732969,104.465874 80.3298273,99.7052033 C88.4863577,94.9453836 94.9445327,88.4863577 99.7052033,80.3298273 C104.465023,72.172446 106.844933,63.2637381 106.844933,53.6054055 C106.844933,43.9462219 104.465023,35.0375141 99.7060542,26.8809836 L99.7060542,26.8809836 Z M86.2570535,72.5306662 C82.8833165,78.3072868 78.3081377,82.8833165 72.5306662,86.2570535 C66.7540456,89.6307906 60.4456254,91.3163828 53.6054055,91.3163828 C46.7660364,91.3163828 40.4576162,89.6307906 34.6801447,86.2570535 C28.9035241,82.8833165 24.3283453,78.3072868 20.9546083,72.5306662 C17.5800204,66.7540456 15.8935773,60.4456254 15.8935773,53.6054055 C15.8935773,46.7651855 17.5808712,40.4567653 20.9546083,34.6801447 C24.3274944,28.9035241 28.9035241,24.3274944 34.6801447,20.9537574 C40.4567653,17.5800204 46.7651855,15.8935773 53.6054055,15.8935773 C60.4456254,15.8935773 66.7540456,17.5800204 72.5306662,20.9537574 C78.3081377,24.3274944 82.8833165,28.9035241 86.2570535,34.6801447 C89.6307906,40.4567653 91.3163828,46.7651855 91.3163828,53.6054055 C91.3163828,60.4456254 89.6307906,66.7540456 86.2570535,72.5306662 L86.2570535,72.5306662 Z" id="Shape"></path>
                            <path d="M74.4715223,34.5414513 C73.5942655,33.6633437 72.55364,33.22429 71.3521982,33.22429 C70.1507564,33.22429 69.1118326,33.6633437 68.2328741,34.5414513 L49.16892,53.6054055 L38.9779368,43.4144223 C38.0998292,42.5363147 37.0609054,42.0972609 35.8586127,42.0972609 C34.6563201,42.0972609 33.6165454,42.5363147 32.7384378,43.4144223 L25.6676295,50.4860814 C24.7895219,51.3633381 24.3504682,52.4039637 24.3504682,53.6054055 C24.3504682,54.8068472 24.7895219,55.8466219 25.6676295,56.7247295 L46.048745,77.105845 C46.9268526,77.9831018 47.9666273,78.4230064 49.1680691,78.4230064 C50.3703618,78.4230064 51.4101365,77.9831018 52.2882441,77.105845 L81.5431814,47.8509077 C82.421289,46.973651 82.8611937,45.9338763 82.8611937,44.7324345 C82.8611937,43.5309928 82.4221399,42.4912181 81.5440323,41.6131105 L74.4715223,34.5414513 L74.4715223,34.5414513 Z" id="Shape"></path>
                        </g>
                    </g>
                </g>
            </g>
        </g>
    </g>
</svg>