<?xml version="1.0" encoding="UTF-8" standalone="no"?>
<svg width="151px" height="111px" viewBox="0 0 151 111" version="1.1" xmlns="http://www.w3.org/2000/svg" xmlns:xlink="http://www.w3.org/1999/xlink">
    <!-- Generator: Sketch 3.8.3 (29802) - http://www.bohemiancoding.com/sketch -->
    <title>cloud106</title>
    <desc>Created with Sketch.</desc>
    <defs>
        <linearGradient x1="123.093231%" y1="65.2709835%" x2="10.0617341%" y2="44.6598204%" id="linearGradient-1">
            <stop stop-color="#B27CE9" offset="0%"></stop>
            <stop stop-color="#2BD07C" offset="100%"></stop>
        </linearGradient>
    </defs>
    <g id="Page-1" stroke="none" stroke-width="1" fill="none" fill-rule="evenodd">
        <g id="Desktop-HD" transform="translate(-189.000000, -825.000000)" fill="url(#linearGradient-1)">
            <g id="how-it-works" transform="translate(-147.000000, 504.000000)">
                <g id="Group-8" transform="translate(219.237858, 320.582078)">
                    <g id="cloud106" transform="translate(116.860157, 0.366086)">
                        <path d="M144.207531,61.9648083 C139.857982,56.5221183 134.299266,52.9943423 127.527547,51.3795625 C129.663965,48.1509619 130.730257,44.5570221 130.730257,40.5987021 C130.730257,35.0773827 128.776987,30.364412 124.871407,26.4578723 C120.965826,22.5522916 116.252855,20.5990217 110.731536,20.5990217 C105.783636,20.5990217 101.460935,22.2138015 97.7634349,25.443361 C94.6920931,17.9428816 89.78159,11.9277311 83.037679,7.39695051 C76.293768,2.86521108 68.8584934,0.599341359 60.7328142,0.599341359 C49.6920931,0.599341359 40.264234,4.50683992 32.4521135,12.3189604 C24.6390342,20.1301219 20.7334534,29.557981 20.7334534,40.599661 C20.7334534,41.2766411 20.7861927,42.3966309 20.8897534,43.9586714 C14.7441931,46.8228918 9.84903229,51.1197019 6.20235326,56.8481427 C2.55663313,62.5785014 0.733773066,68.8266635 0.733773066,75.5993414 C0.733773066,85.2343219 4.15894727,93.4760274 11.0073779,100.324458 C17.8558085,107.174806 26.0984729,110.599022 35.7334534,110.599022 L120.734732,110.599022 C129.014793,110.599022 136.084729,107.667679 141.944538,101.809787 C147.803389,95.9509363 150.733773,88.8810009 150.733773,80.5990217 C150.732814,73.6201814 148.55804,67.4094162 144.207531,61.9648083 L144.207531,61.9648083 Z M99.989031,59.8571564 C99.4932821,60.3509875 98.9083559,60.5974236 98.2323347,60.5974236 L80.7324945,60.5974236 L80.7324945,88.0985423 C80.7324945,88.7745635 80.4850995,89.3604486 79.9903095,89.8552386 C79.4945606,90.3509875 78.9096345,90.5974236 78.2336133,90.5974236 L63.2316955,90.5974236 C62.5547153,90.5974236 61.9688303,90.3509875 61.4740403,89.8552386 C60.9802092,89.3604486 60.7318553,88.7745635 60.7318553,88.0985423 L60.7318553,60.5974236 L43.2320151,60.5974236 C42.5032546,60.5974236 41.903945,60.3634531 41.4360041,59.8964711 C40.9671043,59.4275712 40.7331338,58.8282616 40.7331338,58.0995012 C40.7331338,57.4743014 40.9929944,56.8481427 41.5136746,56.2239019 L68.935205,28.8023715 C69.4041048,28.3334716 70.0034144,28.0995012 70.7321749,28.0995012 C71.4618943,28.0995012 72.0612039,28.3334716 72.5291448,28.8023715 L100.029305,56.3015724 C100.498204,56.7695133 100.731216,57.3688229 100.731216,58.0995012 C100.731216,58.7755224 100.483821,59.3633252 99.989031,59.8571564 L99.989031,59.8571564 Z" id="Shape"></path>
                    </g>
                </g>
            </g>
        </g>
    </g>
</svg>