<?xml version="1.0" encoding="UTF-8" standalone="no"?>
<svg width="137px" height="110px" viewBox="0 0 137 110" version="1.1" xmlns="http://www.w3.org/2000/svg" xmlns:xlink="http://www.w3.org/1999/xlink">
    <!-- Generator: Sketch 3.8.3 (29802) - http://www.bohemiancoding.com/sketch -->
    <title>Group</title>
    <desc>Created with Sketch.</desc>
    <defs>
        <linearGradient x1="123.093231%" y1="65.2709835%" x2="10.0617341%" y2="44.6598204%" id="linearGradient-1">
            <stop stop-color="#B27CE9" offset="0%"></stop>
            <stop stop-color="#2BD07C" offset="100%"></stop>
        </linearGradient>
    </defs>
    <g id="Page-1" stroke="none" stroke-width="1" fill="none" fill-rule="evenodd">
        <g id="Desktop-HD" transform="translate(-651.000000, -824.000000)" fill="url(#linearGradient-1)">
            <g id="how-it-works" transform="translate(-147.000000, 504.000000)">
                <g id="Group-8-Copy" transform="translate(676.500000, 319.582078)">
                    <g id="picture13" transform="translate(121.349506, 0.435860)">
                        <g id="Group">
                            <path d="M133.707867,3.71178282 C131.482366,1.48628222 128.808801,0.373967785 125.682814,0.373967785 L12.0480391,0.373967785 C8.92292366,0.373967785 6.24848737,1.48628222 4.02211506,3.71178282 C1.79661446,5.93728341 0.684300026,8.61171969 0.684300026,11.7368351 L0.684300026,98.0989853 C0.684300026,101.224101 1.79661446,103.899409 4.02211506,106.124909 C6.24848737,108.35041 8.92292366,109.462724 12.0480391,109.462724 L125.684558,109.462724 C128.808801,109.462724 131.483238,108.35041 133.708738,106.124909 C135.934239,103.899409 137.047425,101.224101 137.047425,98.0989853 L137.047425,11.7368351 C137.047425,8.61171969 135.934239,5.93728341 133.707867,3.71178282 L133.707867,3.71178282 Z M127.954516,98.0981136 C127.954516,98.7144195 127.730484,99.2461685 127.280677,99.6968477 C126.830869,100.145783 126.298248,100.369815 125.682814,100.369815 L12.0480391,100.369815 C11.4326049,100.369815 10.8999841,100.145783 10.4501767,99.6968477 C10.0003693,99.2461685 9.7754656,98.7144195 9.7754656,98.0981136 L9.7754656,11.7359634 C9.7754656,11.1205292 9.99949758,10.5887802 10.4501767,10.138101 C10.8999841,9.68916534 11.4326049,9.46426164 12.0480391,9.46426164 L125.684558,9.46426164 C126.29912,9.46426164 126.831741,9.68916534 127.280677,10.138101 C127.729612,10.5887802 127.954516,11.1205292 127.954516,11.7359634 L127.954516,98.0981136 L127.954516,98.0981136 Z" id="Shape"></path>
                            <path d="M32.5029437,45.8271805 C36.2914378,45.8271805 39.510699,44.5021664 42.1624705,41.8503949 C44.8133704,39.1986233 46.1392562,35.9793622 46.1392562,32.1917397 C46.1392562,28.4032456 44.8124987,25.1839844 42.1624705,22.5322128 C39.510699,19.881313 36.2914378,18.5554272 32.5029437,18.5554272 C28.7153212,18.5554272 25.4960601,19.881313 22.8442885,22.5322128 C20.1933887,25.1839844 18.8675029,28.4032456 18.8675029,32.1917397 C18.8675029,35.9793622 20.192517,39.199495 22.8442885,41.8503949 C25.4960601,44.5012947 28.7153212,45.8271805 32.5029437,45.8271805 L32.5029437,45.8271805 Z" id="Shape"></path>
                            <polygon id="Shape" points="52.9569766 66.2812134 41.5932375 54.9183461 18.8666312 77.6449524 18.8666312 91.2812649 118.865094 91.2812649 118.865094 59.463493 89.3207671 29.9182945"></polygon>
                        </g>
                    </g>
                </g>
            </g>
        </g>
    </g>
</svg>