<?xml version="1.0" encoding="UTF-8" standalone="no"?>
<svg width="129px" height="105px" viewBox="0 0 129 105" version="1.1" xmlns="http://www.w3.org/2000/svg" xmlns:xlink="http://www.w3.org/1999/xlink">
    <!-- Generator: Sketch 39.1 (31720) - http://www.bohemiancoding.com/sketch -->
    <title>twitter16</title>
    <desc>Created with Sketch.</desc>
    <defs></defs>
    <g id="Page-1" stroke="none" stroke-width="1" fill="none" fill-rule="evenodd">
        <g id="Artboard-3" transform="translate(-120.000000, -157.000000)" fill="#FFFFFF">
            <g id="twitter16" transform="translate(119.825653, 156.500000)">
                <path d="M129.201,13.241 C124.15,15.414 119.097,16.771 114.048,17.316 C119.751,13.894 123.608,9.06 125.618,2.814 C120.402,5.909 114.835,8.027 108.915,9.168 C103.7,3.628 97.292,0.857 89.687,0.857 C82.409,0.857 76.204,3.423 71.07,8.556 C65.937,13.689 63.371,19.894 63.371,27.172 C63.371,29.127 63.588,31.137 64.023,33.201 C53.268,32.658 43.179,29.956 33.755,25.095 C24.331,20.233 16.333,13.756 9.761,5.663 C7.371,9.736 6.176,14.163 6.176,18.943 C6.176,23.451 7.235,27.634 9.354,31.49 C11.472,35.346 14.324,38.469 17.909,40.859 C13.672,40.696 9.707,39.582 6.014,37.518 L6.014,37.844 C6.014,44.199 8.01,49.779 12.002,54.587 C15.994,59.395 21.032,62.422 27.115,63.671 C24.834,64.268 22.525,64.567 20.19,64.567 C18.669,64.567 17.012,64.431 15.22,64.161 C16.904,69.429 20,73.76 24.508,77.155 C29.016,80.551 34.122,82.301 39.825,82.411 C30.266,89.905 19.376,93.653 7.155,93.653 C4.819,93.653 2.701,93.546 0.8,93.328 C13.021,101.203 26.491,105.14 41.211,105.14 C50.553,105.14 59.325,103.661 67.525,100.701 C75.728,97.741 82.734,93.776 88.546,88.805 C94.357,83.836 99.368,78.119 103.577,71.655 C107.786,65.192 110.922,58.444 112.987,51.41 C115.051,44.375 116.083,37.329 116.083,30.267 C116.083,28.746 116.056,27.606 116.001,26.845 C121.162,23.099 125.562,18.563 129.201,13.241 L129.201,13.241 Z" id="Shape"></path>
            </g>
        </g>
    </g>
</svg>